<svg width="25" height="25" viewBox="0 0 25 25" fill="none" xmlns="http://www.w3.org/2000/svg">
<g id="mdi:partnership-outline">
<path id="Vector" d="M22.6139 9.6423C23.8639 8.3923 23.2939 6.9323 22.6139 6.2223L19.6139 3.2223C18.3539 1.9723 16.9039 2.5423 16.1939 3.2223L14.4939 4.9323H11.9039C10.0039 4.9323 8.90386 5.9323 8.34386 7.0823L3.90386 11.5223V15.5223L3.19386 16.2223C1.94386 17.4823 2.51386 18.9323 3.19386 19.6423L6.19386 22.6423C6.73386 23.1823 7.31386 23.3823 7.86386 23.3823C8.57386 23.3823 9.22386 23.0323 9.61386 22.6423L12.3139 19.9323H15.9039C17.6039 19.9323 18.4639 18.8723 18.7739 17.8323C19.9039 17.5323 20.5239 16.6723 20.7739 15.8323C22.3239 15.4323 22.9039 13.9623 22.9039 12.9323V9.9323H22.3139L22.6139 9.6423ZM20.9039 12.9323C20.9039 13.3823 20.7139 13.9323 19.9039 13.9323H18.9039V14.9323C18.9039 15.3823 18.7139 15.9323 17.9039 15.9323H16.9039V16.9323C16.9039 17.3823 16.7139 17.9323 15.9039 17.9323H11.4939L8.21386 21.2123C7.90386 21.5023 7.72386 21.3323 7.61386 21.2223L4.62386 18.2423C4.33386 17.9323 4.50386 17.7523 4.61386 17.6423L5.90386 16.3423V12.3423L7.90386 10.3423V11.9323C7.90386 13.1423 8.70386 14.9323 10.9039 14.9323C13.1039 14.9323 13.9039 13.1423 13.9039 11.9323H20.9039V12.9323ZM21.1939 8.2223L19.4939 9.9323H11.9039V11.9323C11.9039 12.3823 11.7139 12.9323 10.9039 12.9323C10.0939 12.9323 9.90386 12.3823 9.90386 11.9323V8.9323C9.90386 8.4723 10.0739 6.9323 11.9039 6.9323H15.3139L17.5939 4.6523C17.9039 4.3623 18.0839 4.5323 18.1939 4.6423L21.1839 7.6223C21.4739 7.9323 21.3039 8.1123 21.1939 8.2223Z" fill="url(#paint0_linear_397_1732)"/>
</g>
<defs>
<linearGradient id="paint0_linear_397_1732" x1="1.19516" y1="2.4834" x2="27.9099" y2="5.17053" gradientUnits="userSpaceOnUse">
<stop stop-color="#2D58F7"/>
<stop offset="1" stop-color="#091231"/>
</linearGradient>
</defs>
</svg>
