<svg width="25" height="25" viewBox="0 0 25 25" fill="none" xmlns="http://www.w3.org/2000/svg">
<g id="material-symbols:info-outline">
<path id="Vector" d="M11.9038 17.7598H13.9038V11.7598H11.9038V17.7598ZM12.9038 9.75977C13.1871 9.75977 13.4248 9.66377 13.6168 9.47177C13.8088 9.27977 13.9045 9.04243 13.9038 8.75977C13.9038 8.47643 13.8078 8.23877 13.6158 8.04677C13.4238 7.85477 13.1865 7.7591 12.9038 7.75977C12.6205 7.75977 12.3828 7.85577 12.1908 8.04777C11.9988 8.23977 11.9031 8.4771 11.9038 8.75977C11.9038 9.0431 11.9998 9.28077 12.1918 9.47277C12.3838 9.66477 12.6211 9.76043 12.9038 9.75977ZM12.9038 22.7598C11.5205 22.7598 10.2205 22.4971 9.00381 21.9718C7.78714 21.4464 6.72881 20.7341 5.82881 19.8348C4.92881 18.9348 4.21648 17.8764 3.69181 16.6598C3.16714 15.4431 2.90448 14.1431 2.90381 12.7598C2.90381 11.3764 3.16648 10.0764 3.69181 8.85977C4.21714 7.6431 4.92948 6.58477 5.82881 5.68477C6.72881 4.78477 7.78714 4.07243 9.00381 3.54777C10.2205 3.0231 11.5205 2.76043 12.9038 2.75977C14.2871 2.75977 15.5871 3.02243 16.8038 3.54777C18.0205 4.0731 19.0788 4.78543 19.9788 5.68477C20.8788 6.58477 21.5915 7.6431 22.1168 8.85977C22.6421 10.0764 22.9045 11.3764 22.9038 12.7598C22.9038 14.1431 22.6411 15.4431 22.1158 16.6598C21.5905 17.8764 20.8781 18.9348 19.9788 19.8348C19.0788 20.7348 18.0205 21.4474 16.8038 21.9728C15.5871 22.4981 14.2871 22.7604 12.9038 22.7598ZM12.9038 20.7598C15.1371 20.7598 17.0288 19.9848 18.5788 18.4348C20.1288 16.8848 20.9038 14.9931 20.9038 12.7598C20.9038 10.5264 20.1288 8.63477 18.5788 7.08477C17.0288 5.53477 15.1371 4.75977 12.9038 4.75977C10.6705 4.75977 8.77881 5.53477 7.22881 7.08477C5.67881 8.63477 4.90381 10.5264 4.90381 12.7598C4.90381 14.9931 5.67881 16.8848 7.22881 18.4348C8.77881 19.9848 10.6705 20.7598 12.9038 20.7598Z" fill="url(#paint0_linear_398_1756)"/>
</g>
<defs>
<linearGradient id="paint0_linear_398_1756" x1="1.69813" y1="2.75977" x2="27.2651" y2="5.33159" gradientUnits="userSpaceOnUse">
<stop stop-color="#2D58F7"/>
<stop offset="1" stop-color="#091231"/>
</linearGradient>
</defs>
</svg>
