<svg width="25" height="25" viewBox="0 0 25 25" fill="none" xmlns="http://www.w3.org/2000/svg">
<g id="fluent:call-12-regular">
<path id="Vector" d="M12.0257 5.20845C11.8778 4.80567 11.5813 4.47476 11.1972 4.28361C10.813 4.09246 10.3703 4.05555 9.95974 4.18045C8.01374 4.78045 6.65374 6.45045 6.94574 8.38245C7.27231 10.5267 7.99892 12.5905 9.08774 14.4664C10.1649 16.338 11.5771 17.9956 13.2537 19.3564C14.7617 20.5764 16.8777 20.2404 18.3697 18.8404C18.6836 18.5459 18.874 18.1433 18.9026 17.7138C18.9312 17.2843 18.7958 16.86 18.5237 16.5264L17.4557 15.2204C17.2418 14.9578 16.9539 14.7655 16.6294 14.6685C16.3049 14.5715 15.9587 14.5743 15.6357 14.6764L13.1717 15.4564L12.7417 15.0124C12.2 14.4505 11.726 13.8269 11.3297 13.1544C10.9451 12.4744 10.6455 11.7496 10.4377 10.9964L10.2717 10.4064L12.1717 8.65645C12.4225 8.42365 12.5983 8.1216 12.677 7.78864C12.7557 7.45569 12.7337 7.10686 12.6137 6.78645L12.0277 5.21045L12.0257 5.20845ZM9.37174 2.26845C10.27 1.9936 11.2395 2.07271 12.0813 2.48955C12.9232 2.90639 13.5738 3.62941 13.8997 4.51045L14.4857 6.08645C14.7442 6.77884 14.791 7.53246 14.6201 8.2515C14.4491 8.97053 14.0682 9.62248 13.5257 10.1244L12.5457 11.0264C12.6717 11.3744 12.8417 11.7724 13.0617 12.1584C13.2817 12.5384 13.5377 12.8844 13.7717 13.1664L15.0317 12.7664C15.7362 12.544 16.4911 12.5382 17.1989 12.7496C17.9067 12.9611 18.5347 13.3801 19.0017 13.9524L20.0697 15.2584C20.6633 15.9843 20.9591 16.9083 20.8975 17.8439C20.8359 18.7795 20.4214 19.6568 19.7377 20.2984C17.7497 22.1644 14.5037 22.9385 11.9977 20.9104C10.1304 19.3956 8.5576 17.5502 7.35774 15.4664C6.14304 13.3741 5.33231 11.0722 4.96774 8.68045C4.48774 5.49445 6.77374 3.06845 9.37174 2.27045V2.26845Z" fill="url(#paint0_linear_397_1734)"/>
</g>
<defs>
<linearGradient id="paint0_linear_397_1734" x1="3.93891" y1="2.10742" x2="24.469" y2="3.75955" gradientUnits="userSpaceOnUse">
<stop stop-color="#2D58F7"/>
<stop offset="1" stop-color="#091231"/>
</linearGradient>
</defs>
</svg>
