<svg width="32" height="33" viewBox="0 0 32 33" fill="none" xmlns="http://www.w3.org/2000/svg">
<g id="icons8:checked">
<path id="Vector" d="M16 3.4082C8.8 3.4082 3 9.2082 3 16.4082C3 23.6082 8.8 29.4082 16 29.4082C23.2 29.4082 29 23.6082 29 16.4082C29 15.0082 28.812 13.6142 28.312 12.3142L26.688 13.9082C26.888 14.7082 27.001 15.5082 27.001 16.4082C27.001 22.5082 22.101 27.4082 16.001 27.4082C9.901 27.4082 5 22.5082 5 16.4082C5 10.3082 9.9 5.4082 16 5.4082C19 5.4082 21.694 6.6022 23.594 8.5022L25 7.0962C22.7 4.7962 19.5 3.4082 16 3.4082ZM27.28 7.6882L16 18.9712L11.72 14.6912L10.28 16.1282L15.28 21.1282L16 21.8142L16.72 21.1272L28.72 9.1272L27.28 7.6872V7.6882Z" fill="#35C335"/>
</g>
</svg>
