<svg width="40" height="41" viewBox="0 0 40 41" fill="none" xmlns="http://www.w3.org/2000/svg">
<g id="fluent:checkbox-checked-sync-20-filled">
<path id="Vector" d="M10 4.4082C8.4087 4.4082 6.88258 5.04034 5.75736 6.16556C4.63214 7.29078 4 8.8169 4 10.4082V26.4082C4 27.9995 4.63214 29.5256 5.75736 30.6508C6.88258 31.7761 8.4087 32.4082 10 32.4082H18.414C17.8791 30.5241 17.8569 28.5314 18.3498 26.6358C18.8427 24.7403 19.8327 23.0108 21.2176 21.6258C22.6026 20.2409 24.3321 19.2509 26.2276 18.758C28.1232 18.2652 30.1159 18.2873 32 18.8222V10.4082C32 8.8169 31.3679 7.29078 30.2426 6.16556C29.1174 5.04034 27.5913 4.4082 26 4.4082H10ZM25.708 14.1162L15.708 24.1162C15.6151 24.2093 15.5048 24.2832 15.3833 24.3336C15.2618 24.384 15.1315 24.41 15 24.41C14.8685 24.41 14.7382 24.384 14.6167 24.3336C14.4952 24.2832 14.3849 24.2093 14.292 24.1162L10.292 20.1162C10.1042 19.9284 9.99874 19.6738 9.99874 19.4082C9.99874 19.1427 10.1042 18.888 10.292 18.7002C10.4798 18.5124 10.7344 18.4069 11 18.4069C11.2656 18.4069 11.5202 18.5124 11.708 18.7002L15 21.9942L24.292 12.7002C24.4798 12.5124 24.7344 12.4069 25 12.4069C25.2656 12.4069 25.5202 12.5124 25.708 12.7002C25.8958 12.888 26.0013 13.1427 26.0013 13.4082C26.0013 13.6738 25.8958 13.9284 25.708 14.1162ZM20 29.4082C20 31.7952 20.9482 34.0843 22.636 35.7722C24.3239 37.46 26.6131 38.4082 29 38.4082C31.3869 38.4082 33.6761 37.46 35.364 35.7722C37.0518 34.0843 38 31.7952 38 29.4082C38 27.0213 37.0518 24.7321 35.364 23.0442C33.6761 21.3564 31.3869 20.4082 29 20.4082C26.6131 20.4082 24.3239 21.3564 22.636 23.0442C20.9482 24.7321 20 27.0213 20 29.4082ZM33 23.4082C33.2652 23.4082 33.5196 23.5136 33.7071 23.7011C33.8946 23.8886 34 24.143 34 24.4082V27.4082C34 27.6734 33.8946 27.9278 33.7071 28.1153C33.5196 28.3028 33.2652 28.4082 33 28.4082H30C29.7348 28.4082 29.4804 28.3028 29.2929 28.1153C29.1054 27.9278 29 27.6734 29 27.4082C29 27.143 29.1054 26.8886 29.2929 26.7011C29.4804 26.5136 29.7348 26.4082 30 26.4082H30.936C30.1764 25.9874 29.3004 25.8254 28.4405 25.9466C27.5807 26.0679 26.7837 26.4658 26.17 27.0802C25.98 27.2548 25.7299 27.3492 25.4719 27.3437C25.2139 27.3382 24.968 27.2331 24.7857 27.0505C24.6034 26.868 24.4987 26.6219 24.4935 26.3639C24.4883 26.1059 24.5831 25.8559 24.758 25.6662C25.692 24.7326 26.9079 24.1332 28.2172 23.9607C29.5265 23.7882 30.8561 24.0524 32 24.7122V24.4082C32 24.143 32.1054 23.8886 32.2929 23.7011C32.4804 23.5136 32.7348 23.4082 33 23.4082ZM31.248 34.4722C30.4028 34.8137 29.4909 34.958 28.5815 34.8943C27.6721 34.8305 26.7893 34.5603 26 34.1042V34.4082C26 34.6734 25.8946 34.9278 25.7071 35.1153C25.5196 35.3028 25.2652 35.4082 25 35.4082C24.7348 35.4082 24.4804 35.3028 24.2929 35.1153C24.1054 34.9278 24 34.6734 24 34.4082V31.4082C24 31.143 24.1054 30.8886 24.2929 30.7011C24.4804 30.5136 24.7348 30.4082 25 30.4082H28C28.2652 30.4082 28.5196 30.5136 28.7071 30.7011C28.8946 30.8886 29 31.143 29 31.4082C29 31.6734 28.8946 31.9278 28.7071 32.1153C28.5196 32.3028 28.2652 32.4082 28 32.4082H27.064C27.8236 32.829 28.6996 32.991 29.5595 32.8698C30.4193 32.7485 31.2163 32.3506 31.83 31.7362C32.02 31.5616 32.2701 31.4672 32.5281 31.4727C32.7861 31.4782 33.032 31.5833 33.2143 31.7659C33.3966 31.9485 33.5013 32.1945 33.5065 32.4525C33.5117 32.7105 33.4169 32.9605 33.242 33.1502C32.674 33.7202 31.994 34.1722 31.248 34.4722Z" fill="url(#paint0_linear_93_1402)"/>
</g>
<defs>
<linearGradient id="paint0_linear_93_1402" x1="1.95035" y1="4.4082" x2="45.4142" y2="8.78031" gradientUnits="userSpaceOnUse">
<stop stop-color="#3FEA3F"/>
<stop offset="1" stop-color="#091231"/>
</linearGradient>
</defs>
</svg>
