<svg width="60" height="61" viewBox="0 0 60 61" fill="none" xmlns="http://www.w3.org/2000/svg">
<g id="eos-icons:ai">
<path id="Vector" d="M52.5 27.9077V22.9077H47.5V17.9077C47.496 16.5828 46.968 15.3134 46.0312 14.3766C45.0943 13.4397 43.8249 12.9117 42.5 12.9077H37.5V7.90771H32.5V12.9077H27.5V7.90771H22.5V12.9077H17.5C16.1751 12.9117 14.9057 13.4397 13.9688 14.3766C13.032 15.3134 12.504 16.5828 12.5 17.9077V22.9077H7.5V27.9077H12.5V32.9077H7.5V37.9077H12.5V42.9077C12.504 44.2326 13.032 45.5021 13.9688 46.4389C14.9057 47.3757 16.1751 47.9038 17.5 47.9077H22.5V52.9077H27.5V47.9077H32.5V52.9077H37.5V47.9077H42.5C43.8249 47.9038 45.0943 47.3757 46.0312 46.4389C46.968 45.5021 47.496 44.2326 47.5 42.9077V37.9077H52.5V32.9077H47.5V27.9077H52.5ZM42.5 42.9077H17.5V17.9077H42.5V42.9077Z" fill="url(#paint0_linear_91_1347)"/>
<path id="Vector_2" d="M28.4025 20.4077H25.04L20.015 40.4077H22.5825L23.7425 35.7202H29.5325L30.6625 40.4077H33.3175L28.4025 20.4077ZM24.08 33.7177L26.625 22.7827H26.74L29.1975 33.7177H24.08ZM35.61 20.4077H38.11V40.4077H35.61V20.4077Z" fill="url(#paint1_linear_91_1347)"/>
</g>
<defs>
<linearGradient id="paint0_linear_91_1347" x1="4.78723" y1="7.90771" x2="62.3129" y2="13.6943" gradientUnits="userSpaceOnUse">
<stop stop-color="#3FEA3F"/>
<stop offset="1" stop-color="#091231"/>
</linearGradient>
<linearGradient id="paint1_linear_91_1347" x1="18.9242" y1="20.4077" x2="42.098" y2="22.5168" gradientUnits="userSpaceOnUse">
<stop stop-color="#3FEA3F"/>
<stop offset="1" stop-color="#091231"/>
</linearGradient>
</defs>
</svg>
