<svg width="40" height="41" viewBox="0 0 40 41" fill="none" xmlns="http://www.w3.org/2000/svg">
<g id="carbon:application-web">
<path id="Vector" d="M32.5 3.4082H37.5V8.4082H32.5V3.4082ZM32.5 10.9082H37.5V15.9082H32.5V10.9082ZM25 3.4082H30V8.4082H25V3.4082ZM25 10.9082H30V15.9082H25V10.9082Z" fill="url(#paint0_linear_93_1438)"/>
<path id="Vector_2" d="M35 20.9082V28.4082H5V8.4082H20V5.9082H5C4.33696 5.9082 3.70107 6.1716 3.23223 6.64044C2.76339 7.10928 2.5 7.74516 2.5 8.4082V28.4082C2.5 29.0712 2.76339 29.7071 3.23223 30.176C3.70107 30.6448 4.33696 30.9082 5 30.9082H15V35.9082H10V38.4082H30V35.9082H25V30.9082H35C35.663 30.9082 36.2989 30.6448 36.7678 30.176C37.2366 29.7071 37.5 29.0712 37.5 28.4082V20.9082H35ZM22.5 35.9082H17.5V30.9082H22.5V35.9082Z" fill="url(#paint1_linear_93_1438)"/>
</g>
<defs>
<linearGradient id="paint0_linear_93_1438" x1="24.2465" y1="3.4082" x2="40.2258" y2="5.01559" gradientUnits="userSpaceOnUse">
<stop stop-color="#3FEA3F"/>
<stop offset="1" stop-color="#091231"/>
</linearGradient>
<linearGradient id="paint1_linear_93_1438" x1="0.390071" y1="5.9082" x2="45.0608" y2="10.7474" gradientUnits="userSpaceOnUse">
<stop stop-color="#3FEA3F"/>
<stop offset="1" stop-color="#091231"/>
</linearGradient>
</defs>
</svg>
